<svg xmlns="http://www.w3.org/2000/svg" width="492" height="394">
  <g fill="none" fill-rule="evenodd">
    <path d="M-4.00000027-50.99999982h500v500h-500z"/>
    <path fill="#FFF" d="M346.627045 372.994318c19.604546-11.018182 31.509091-27.543182 36.815909-50.854545 6.690909-.122728 12.677273-3.877273 15.790909-9.581819 6.256819-1.165909 11.661364-5.413636 14.609091-11.495454l18.409091-4.4c4.393182 5.406818 10.995455 8.625 18.125 8.625 12.9 0 23.393182-10.495455 23.393182-23.393182s-10.493182-23.390909-23.393182-23.390909c-7.129545 0-13.731818 3.213636-18.125 8.620454l-18.156818-4.336363c-2.95-6.2-8.470455-10.504546-14.888636-11.602273-3.168182-5.777273-9.295455-9.538636-16.104546-9.538636h-2.015909c-7.065909-29.136364-19.640909-61.311364-34.859091-89.0340912-17.515909-31.9068182-53.913636-85.43181816-100.902273-85.43181816-46.993181 0-83.390909 53.52499996-100.904545 85.43181816C129.202045 180.3375 116.6225 212.519318 109.561136 241.655682c-6.563636.215909-12.4181817 3.925-15.4931817 9.529545-6.4159091 1.1-11.9340909 5.402273-14.8863637 11.602273l-18.1590909 4.336363c-4.3931818-5.406818-10.9954545-8.620454-18.125-8.620454-12.8977272 0-23.3909091 10.493182-23.3909091 23.390909 0 12.897727 10.4931819 23.393182 23.3909091 23.393182 7.1295455 0 13.7318182-3.218182 18.125-8.625l18.4113637 4.4c2.9477272 6.081818 8.35 10.329545 14.6068181 11.495454 2.6909091 4.934091 7.5340905 8.406819 13.1204545 9.336364 3.956818 17.261364 11.443182 30.668182 22.809091 40.875 4.229545 3.797727 8.963636 7.163636 14.290909 10.140909-4.314953 1.498184 47.859413 20.389371 100.6025 20.407968 52.710905.018559 105.990528-18.834559 101.763409-20.323877z"/>
    <path fill="#2E1B36" d="M62.6193179 295.801591l8.6431818 19.440909-20.0295454-13.106818-4.9909091 23.409091-8.4977273-22.375-17.7977273 16.004545 6.2772728-23.097727-23.80909095 2.488636L21.0715906 283.5675.34886336 271.585682 24.2579543 270.4175l-9.7227273-21.872727 20.0295455 13.10909 4.9886363-23.411363 8.4977273 22.377273 17.8-16.006819-5.5795455 20.534091.2298774 3.001536c-21.0312819-2.15966-31.5469228 2.442328-31.5469228 13.805964 0 11.363637 11.2215909 15.979318 33.6647727 13.847046zm369.4025001-30.655228l-5.579546-20.53409 17.8 16.006818L452.74 238.241818l4.990909 23.411364 20.027273-13.109091-9.722728 21.872727 23.909091 1.168182-20.722727 11.981818 18.654545 14.997727-23.806818-2.488636 6.277273 23.097727-17.8-16.004545-8.495455 22.377272-4.988636-23.411363-20.029545 13.106818 8.643181-19.440909c24.518788 2.890303 36.778182-1.725152 36.778182-13.846364s-11.549767-16.780414-34.649301-13.977605l.216574-2.830577z"/>
    <path fill="#2E1B36" d="M51.7029543 279.161136c-1.175 3.768182-4.6545455 6.529546-8.8068182 6.529546-4.1477273 0-7.6272727-2.761364-8.8022727-6.529546-.2704546.870455-.4590909 1.775-.4590909 2.734091 0 5.106818 4.1545454 9.261364 9.2613636 9.261364 5.1113636 0 9.2659091-4.154546 9.2659091-9.261364 0-.959091-.1886364-1.863636-.4590909-2.734091m398.6761367 11.996137c5.106818 0 9.261363-4.154546 9.261363-9.263637 0-.956818-.188636-1.863636-.459091-2.731818-1.175 3.765909-4.654545 6.529545-8.802272 6.529545-4.15 0-7.629546-2.763636-8.806819-6.529545-.270454.868182-.456818 1.775-.456818 2.731818 0 5.109091 4.154546 9.263637 9.263637 9.263637M230.745682 110.4999998c1.463636 0 2.65 1.1863637 2.65 2.65 0 1.4636364-1.186364 2.6477273-2.65 2.6477273-1.463637 0-2.65-1.1840909-2.65-2.6477273 0-1.4636363 1.186363-2.65 2.65-2.65m0 8.4704546c2.840909 0 5.145454-2.3045455 5.145454-5.1477273 0-2.8409091-2.304545-5.1454546-5.145454-5.1454546-2.84091 0-5.145455 2.3045455-5.145455 5.1454546 0 2.8431818 2.304545 5.1477273 5.145455 5.1477273m0 27.9752272c1.463636 0 2.65 1.1863637 2.65 2.65 0 1.4636364-1.186364 2.6477273-2.65 2.6477273-1.463637 0-2.65-1.1840909-2.65-2.6477273 0-1.4636363 1.186363-2.65 2.65-2.65m0 8.4704546c2.840909 0 5.145454-2.3045455 5.145454-5.1477273 0-2.8409091-2.304545-5.1454545-5.145454-5.1454545-2.84091 0-5.145455 2.3045454-5.145455 5.1454545 0 2.8431818 2.304545 5.1477273 5.145455 5.1477273m29.157045-26.6934091c1.463636 0 2.65 1.1863636 2.65 2.65s-1.186364 2.6477273-2.65 2.6477273-2.647727-1.1840909-2.647727-2.6477273c0-1.4636364 1.184091-2.65 2.647727-2.65m0 8.4704545c2.843182 0 5.147727-2.3045454 5.147727-5.1477272 0-2.8409091-2.304545-5.1454546-5.147727-5.1454546-2.843182 0-5.147727 2.3045455-5.147727 5.1454546 0 2.8431818 2.304545 5.1477272 5.147727 5.1477272M230.745682 183.3925c1.463636 0 2.65 1.184091 2.65 2.65 0 1.461363-1.186364 2.647727-2.65 2.647727-1.463637 0-2.65-1.186364-2.65-2.647727 0-1.465909 1.186363-2.65 2.65-2.65m0 8.470454c2.840909 0 5.145454-2.304545 5.145454-5.147727 0-2.840909-2.304545-5.145454-5.145454-5.145454-2.84091 0-5.145455 2.304545-5.145455 5.145454 0 2.843182 2.304545 5.147727 5.145455 5.147727m29.157045-26.6931815c1.463636 0 2.65 1.184091 2.65 2.6500005 0 1.461363-1.186364 2.647727-2.65 2.647727s-2.647727-1.186364-2.647727-2.647727c0-1.4659095 1.184091-2.6500005 2.647727-2.6500005m0 8.4704545c2.843182 0 5.147727-2.304545 5.147727-5.147727 0-2.8409093-2.304545-5.1454547-5.147727-5.1454547-2.843182 0-5.147727 2.3045454-5.147727 5.1454547 0 2.843182 2.304545 5.147727 5.147727 5.147727m-29.157045 46.198182c1.463636 0 2.65 1.184091 2.65 2.65 0 1.461364-1.186364 2.647727-2.65 2.647727-1.463637 0-2.65-1.186363-2.65-2.647727 0-1.465909 1.186363-2.65 2.65-2.65m0 8.470454c2.840909 0 5.145454-2.304545 5.145454-5.147727 0-2.840909-2.304545-5.145454-5.145454-5.145454-2.84091 0-5.145455 2.304545-5.145455 5.145454 0 2.843182 2.304545 5.147727 5.145455 5.147727m29.157045-26.693409c1.463636 0 2.65 1.184091 2.65 2.65 0 1.461364-1.186364 2.647728-2.65 2.647728s-2.647727-1.186364-2.647727-2.647728c0-1.465909 1.184091-2.65 2.647727-2.65m0 8.470455c2.843182 0 5.147727-2.304546 5.147727-5.147727 0-2.840909-2.304545-5.145455-5.147727-5.145455-2.843182 0-5.147727 2.304546-5.147727 5.145455 0 2.843181 2.304545 5.147727 5.147727 5.147727m-29.157045 46.198182c1.463636 0 2.65 1.184091 2.65 2.65 0 1.461363-1.186364 2.647727-2.65 2.647727-1.463637 0-2.65-1.186364-2.65-2.647727 0-1.465909 1.186363-2.65 2.65-2.65m0 8.470454c2.840909 0 5.145454-2.304545 5.145454-5.147727 0-2.840909-2.304545-5.145455-5.145454-5.145455-2.84091 0-5.145455 2.304546-5.145455 5.145455 0 2.843182 2.304545 5.147727 5.145455 5.147727m29.157045-26.693409c1.463636 0 2.65 1.184091 2.65 2.65 0 1.461364-1.186364 2.647727-2.65 2.647727S257.255 242.1725 257.255 240.711136c0-1.465909 1.184091-2.65 2.647727-2.65m0 8.470455c2.843182 0 5.147727-2.304546 5.147727-5.147728 0-2.840909-2.304545-5.145454-5.147727-5.145454-2.843182 0-5.147727 2.304545-5.147727 5.145454 0 2.843182 2.304545 5.147728 5.147727 5.147728m-29.157045 46.198182c1.463636 0 2.65 1.186363 2.65 2.65 0 1.461363-1.186364 2.647727-2.65 2.647727-1.463637 0-2.65-1.186364-2.65-2.647727 0-1.463637 1.186363-2.65 2.65-2.65m0 8.470454c2.840909 0 5.145454-2.304545 5.145454-5.147727 0-2.840909-2.304545-5.145455-5.145454-5.145455-2.84091 0-5.145455 2.304546-5.145455 5.145455 0 2.843182 2.304545 5.147727 5.145455 5.147727m29.157045-21.395454c-1.463636 0-2.647727-1.186364-2.647727-2.65 0-1.461364 1.184091-2.647728 2.647727-2.647728 1.463636 0 2.65 1.186364 2.65 2.647728 0 1.463636-1.186364 2.65-2.65 2.65m0-7.120455c-2.843182 0-5.147727 2.304545-5.147727 5.145455 0 2.843181 2.304545 5.147727 5.147727 5.147727 2.843182 0 5.147727-2.304546 5.147727-5.147727 0-2.84091-2.304545-5.145455-5.147727-5.145455m-29.157045 98.234773c-1.463637 0-2.65-1.186364-2.65-2.65 0-1.461364 1.186363-2.647728 2.65-2.647728 1.463636 0 2.65 1.186364 2.65 2.647728 0 1.463636-1.186364 2.65-2.65 2.65m0-7.120455c-2.84091 0-5.145455 2.304546-5.145455 5.145455 0 2.843182 2.304545 5.147727 5.145455 5.147727 2.840909 0 5.145454-2.304545 5.145454-5.147727 0-2.840909-2.304545-5.145455-5.145454-5.145455m29.157045-11.102273c-1.463636 0-2.647727-1.186363-2.647727-2.65 0-1.461363 1.184091-2.647727 2.647727-2.647727 1.463636 0 2.65 1.186364 2.65 2.647727 0 1.463637-1.186364 2.65-2.65 2.65m0-7.120454c-2.843182 0-5.147727 2.304545-5.147727 5.145454 0 2.843182 2.304545 5.147728 5.147727 5.147728 2.843182 0 5.147727-2.304546 5.147727-5.147728 0-2.840909-2.304545-5.145454-5.147727-5.145454m-62.690909-66.403636c0 7.28409-2.913636 10.015909-7.465909 10.015909-4.556818 0-7.468182-2.731819-7.468182-10.015909v-63.193182c0-7.284091 2.911364-10.018182 7.468182-10.018182 4.552273 0 7.465909 2.734091 7.465909 10.018182v63.193182zm11.290909 0v-63.193182c0-15.118182-9.106818-19.125-18.756818-19.125-9.652273 0-18.759091 4.006818-18.759091 19.125v63.193182c0 15.115909 9.106818 19.122727 18.759091 19.122727 9.65 0 18.756818-4.006818 18.756818-19.122727zM300.905 298.299545c4.552272 0 7.465909-2.731818 7.465909-10.015909v-81.415909c0-7.286364-2.913637-10.018182-7.465909-10.018182-4.554546 0-7.468182 2.731818-7.468182 10.018182v81.415909c0 7.284091 2.913636 10.015909 7.468182 10.015909"/>
    <path fill="#2E1B36" d="M243.501136 78.6354544V316.830909h-34.331818c-5.525 0-10.022727 4.495454-10.022727 10.020454 0 5.527273 4.497727 10.022728 10.022727 10.022728h34.331818v42.979545c-53.022727-.184091-86.715909-8.315909-105.915909-25.561363-16.020455-14.388637-22.554545-34.786364-22.554545-70.404546 0-63.556818 61.861363-202.7431817 128.470454-205.2522726zM88.6920452 293.094545c-1.8295455-7.631818-1.8977273-15.156818-.2045455-22.363636l.2477273-1.056818c1.1636364-4.343182 4.675-7.368182 8.5886364-7.368182h.3954545v39.179545h-.1840909c-3.9227273 0-7.4454545-3.075-8.6272727-7.490909l-.2159091-.9zm-28.5681818-8.361363c.0295454-.175.0409091-.35.0659091-.525.0318181-.240909.0681818-.479546.090909-.722728.05-.529545.0818182-1.059091.0818182-1.590909 0-.531818-.0318182-1.061363-.0818182-1.593182-.0227272-.240909-.0590909-.477272-.0886363-.715909-.025-.177272-.0386364-.354545-.0681818-.529545l22.2272727-5.309091c-.0045455.029545-.0045455.059091-.0090909.088636-.5772727 3.961364-.6931818 7.988637-.3454546 12.059091.0068182.059091.0136364.118182.0181819.175.1136363 1.259091.2727272 2.522728.4727272 3.790909.0113637.075.0159091.147728.0272728.222728l-22.3909091-5.35zm-29.2227273-2.838637c0-6.615909 5.3818182-11.997727 11.9954545-11.997727 5.2295455 0 9.675 3.368182 11.3136364 8.043182.2204545.627273.3818182 1.261363.4954545 1.897727.009091.059091.0181819.120455.0272728.179546.1022727.625.1613636 1.252272.1613636 1.877272 0 .627273-.0590909 1.254546-.1613636 1.877273-.0090909.059091-.0181818.118182-.0272728.179545-.1136363.636364-.275 1.268182-.4931818 1.893182l-.0045454.013637C52.5647725 290.528636 48.1238634 293.89 42.8965906 293.89c-6.6136363 0-11.9954545-5.379546-11.9954545-11.995455zm216.2454549 97.959091v-42.979545h34.331818c5.527273 0 10.022727-4.495455 10.022727-10.022728 0-5.525-4.495454-10.020454-10.022727-10.020454h-34.331818V78.6354544c66.611363 2.5090909 128.472727 141.6954546 128.472727 205.2522726 0 63.297727-19.945455 95.606818-128.472727 95.965909zm157.638636-109.143182l.006818.034091c1.684091 7.193182 1.618182 14.7-.2 22.313637-.006818.022727-.011363.045454-.015909.068181l-.204545.852273c-1.175 4.425-4.704546 7.506818-8.631819 7.506818h-.18409v-39.179545h.395454c3.915909 0 7.429546 3.027273 8.590909 7.372727l.243182 1.031818zm28.365909 8.345455c-.027273.165909-.038636.334091-.061364.502273-.03409.25-.072727.497727-.095454.752272-.05.527273-.079546 1.056819-.079546 1.584091 0 .529546.029546 1.056818.079546 1.584091.022727.254546.061364.504546.095454.756818.022728.165909.034091.331819.061364.497728l-22.388636 5.35c.011363-.081819.015909-.159091.027272-.238637.2-1.256818.359091-2.511363.468182-3.759091l.020455-.197727c.347727-4.072727.231818-8.102273-.347727-12.065909-.002273-.025-.002273-.05-.006819-.075l22.227273 5.309091zm29.225 2.838636c0 6.615909-5.384091 11.995455-11.997727 11.995455-5.206818 0-9.636364-3.338637-11.290909-7.981818l-.022728-.063637c-.220454-.625-.381818-1.259091-.495454-1.897727-.009091-.056818-.018182-.113636-.027273-.170455-.102273-.627272-.161363-1.254545-.161363-1.881818 0-.627272.05909-1.254545.161363-1.879545l.027273-.172727c.113636-.638637.275-1.272728.495454-1.9l.018182-.052273c1.652273-4.647727 6.084091-7.993182 11.295455-7.993182 6.613636 0 11.997727 5.381818 11.997727 11.997727zm-180.897727 40.402273c2.511363 0 4.556818 2.043182 4.556818 4.554545 0 2.513637-2.045455 4.556819-4.556818 4.556819h-72.309091c-2.511364 0-4.554546-2.043182-4.554546-4.556819 0-2.511363 2.043182-4.554545 4.554546-4.554545h72.309091zm46.965909 52.375c31.420454-11.136364 45.134091-30.854545 50.161364-58.456818h4.5c5.772727 0 10.613636-3.934091 12.025-9.263637h.60909c6.213637 0 11.745455-4.461363 13.731819-10.940909l25.420454-6.072727c2.915909 5.590909 8.756818 9.420455 15.486364 9.420455 9.629545 0 17.463636-7.834091 17.463636-17.463637 0-9.629545-7.834091-17.463636-17.463636-17.463636-6.727273 0-12.570455 3.829545-15.484091 9.418182l-25.197727-6.015909c-1.925-6.502273-7.488637-10.995455-13.745455-10.995455h-.820454c-1.411364-5.329545-6.252273-9.263636-12.025-9.263636h-6.725c-6.5-28.938637-19.268182-62.809091-35.35-92.1090912-16.884091-30.7568182-51.76591-82.35681816-95.706819-82.35681816s-78.822727 51.59999996-95.704545 82.35681816c-16.081818 29.2977272-28.852273 63.1704542-35.352273 92.1090912h-4.095454c-5.772728 0-10.615909 3.934091-12.0250004 9.263636h-.8227272c-6.2522728 0-11.8181819 4.493182-13.7454546 10.993182l-25.1954545 6.020454c-2.9159091-5.590909-8.7568182-9.420454-15.4863637-9.420454-9.6295454 0-17.4613636 7.834091-17.4613636 17.463636 0 9.629546 7.8318182 17.463637 17.4613636 17.463637 6.7295455 0 12.5704546-3.829546 15.4863637-9.420455l25.4181818 6.072727c1.9886364 6.479546 7.5227273 10.940909 13.7340909 10.940909h.6113636c1.4090914 5.329546 6.2522724 9.263637 12.0250004 9.263637h1.865909c2.929545 15.713636 9.127272 30.677273 21.893182 42.145454 7.468181 6.704546 16.922727 12.097728 28.602272 16.254546-7.714187 1.352768 37.004988 13.008501 82.330682 13.021374 45.292509.012842 91.19153-11.616186 83.580682-12.964556z"/>
    <path fill="#2E1B36" d="M174.120227 375.592045l-10.595455-3.770454c-11.33409-4.034091-20.363636-9.159091-27.613636-15.668182-10.840909-9.736364-17.695454-22.977273-20.959091-40.481818l-.45-2.422728h-4.331818c-4.290909 0-8.056818-2.9-9.156818-7.056818l-.586364-2.204545h-2.8909089c-4.8954546 0-9.275-3.554546-10.8977273-8.847727l-.5-1.618182-29.3113636-7.004546-1.0704546 2.047728c-2.5227272 4.829545-7.4477272 7.829545-12.8590909 7.829545-7.9954545 0-14.5-6.504545-14.5-14.5s6.5045455-14.5 14.5-14.5c5.4136364 0 10.3363637 2.997727 12.8568182 7.827273l1.0659091 2.05 29.1090909-6.954546.4909091-1.643182c1.5727273-5.306818 5.9545455-8.870454 10.9045455-8.870454h3.1022725l.586364-2.206818c1.1-4.156818 4.865909-7.059091 9.156818-7.059091h6.468182l.520454-2.313637c6.638637-29.545454 19.415909-62.83409 35.059091-91.3340905 16.565909-30.1818181 50.693182-80.81590905 93.106818-80.81590905 42.411364 0 76.538637 50.63409095 93.104546 80.81818185 15.647727 28.4999997 28.425 61.7909087 35.059091 91.3318177l.518182 2.313637h9.097727c4.293182 0 8.059091 2.902273 9.161364 7.059091l.581818 2.206818h3.104545c4.947727 0 9.329546 3.563636 10.902273 8.870454l.484091 1.643182 29.115909 6.954546 1.070454-2.05c2.51591-4.829546 7.44091-7.827273 12.854546-7.827273 7.993182 0 14.5 6.504545 14.5 14.5s-6.506818 14.5-14.5 14.5c-5.413636 0-10.340909-3-12.859091-7.827273l-1.068182-2.05-29.313636 7.004546-.5 1.620454c-1.620455 5.290909-6 8.845455-10.897727 8.845455H392.8475l-.581818 2.204545c-1.102273 4.156818-4.868182 7.056818-9.161364 7.056818h-6.970455l-.440909 2.434091c-5.268182 28.906819-20.143182 46.236364-48.238636 56.195455l-10.593182 3.754545-71.9975 9.730682-70.743409-9.771591zm172.506818-2.597727c19.604546-11.018182 31.509091-27.543182 36.815909-50.854545 6.690909-.122728 12.677273-3.877273 15.790909-9.581819 6.256819-1.165909 11.661364-5.413636 14.609091-11.495454l18.409091-4.4c4.393182 5.406818 10.995455 8.625 18.125 8.625 12.9 0 23.393182-10.495455 23.393182-23.393182s-10.493182-23.390909-23.393182-23.390909c-7.129545 0-13.731818 3.213636-18.125 8.620454l-18.156818-4.336363c-2.95-6.2-8.470455-10.504546-14.888636-11.602273-3.168182-5.777273-9.295455-9.538636-16.104546-9.538636h-2.015909c-7.065909-29.136364-19.640909-61.311364-34.859091-89.0340912-17.515909-31.9068182-53.913636-85.43181816-100.902273-85.43181816-46.993181 0-83.390909 53.52499996-100.904545 85.43181816C129.202045 180.3375 116.6225 212.519318 109.561136 241.655682c-6.563636.215909-12.4181817 3.925-15.4931817 9.529545-6.4159091 1.1-11.9340909 5.402273-14.8863637 11.602273l-18.1590909 4.336363c-4.3931818-5.406818-10.9954545-8.620454-18.125-8.620454-12.8977272 0-23.3909091 10.493182-23.3909091 23.390909 0 12.897727 10.4931819 23.393182 23.3909091 23.393182 7.1295455 0 13.7318182-3.218182 18.125-8.625l18.4113637 4.4c2.9477272 6.081818 8.35 10.329545 14.6068181 11.495454 2.6909091 4.934091 7.5340905 8.406819 13.1204545 9.336364 3.956818 17.261364 11.443182 30.668182 22.809091 40.875 4.229545 3.797727 8.963636 7.163636 14.290909 10.140909 6.284318 3.3625 47.859413 19.253007 100.6025 19.272458 52.710905.017706 92.045455-13.637231 101.763409-19.188367z"/>
    <g stroke="#2D1937" stroke-width="10" transform="translate(109.636363 5.818182)">
      <path fill="#FFF" stroke-linejoin="round" d="M217.269922 80.5731714c8.498575 25.1394206 10.002805 42.4173526 10.002805 51.8337956 0 16.918435-57.072881 23.070593-93.519326 23.070593-36.4464462 0-88.2988555-6.152158-88.2988555-23.070593 0-9.428376 3.7056126-26.738178 11.1168379-51.9294073"/>
      <path fill="#FFF" stroke-linecap="square" stroke-linejoin="round" d="M136.890137 0L0 56.8181818l136.363636 56.8181822 136.363637-56.8181822z"/>
      <path fill="#FFF" d="M22.7272727 138.636364c5.0207705 0 9.0909091 4.070138 9.0909091 9.090909v25H13.6363636v-25c0-5.020771 4.0701387-9.090909 9.0909091-9.090909z"/>
      <circle cx="22.7272727" cy="129.545455" r="9.09090909" fill="#FFF"/>
      <path stroke-linecap="round" stroke-linejoin="round" d="M136.363636 56.8181818L22.7272727 67.0454545v53.4090905"/>
    </g>
  </g>
</svg>